<?xml version="1.0" encoding="utf-8"?>
<!-- Generator: Adobe Illustrator 27.4.1, SVG Export Plug-In . SVG Version: 6.00 Build 0)  -->
<svg version="1.1" id="Layer_1" xmlns="http://www.w3.org/2000/svg" xmlns:xlink="http://www.w3.org/1999/xlink" x="0px" y="0px"
	 viewBox="0 0 800 800" style="enable-background:new 0 0 800 800;" xml:space="preserve">
<style type="text/css">
	.st0{fill:#00B511;}
</style>
<g>
	<g>
		<g>
			<path class="st0" d="M180.7,478.6c6.5,3.2,14.5,0.6,17.8-5.9s0.7-14.5-5.8-17.9c-1.9-1-47.6-25.3-59.5-97
				c-1-5.9-5.8-10.4-11.7-11.1c-6.1-0.7-11.6,2.8-13.8,8.3c-28.9,72.4,25.6,155.5,28,159c2.6,3.9,6.8,5.9,11.1,5.9
				c2.5,0,5.1-0.7,7.4-2.2c6.1-4.1,7.8-12.3,3.7-18.5c-0.3-0.5-22.9-35-29.9-75.7C149.8,462.7,179,477.7,180.7,478.6z"/>
			<path class="st0" d="M242.6,506.4c7.2-1.4,11.9-8.5,10.5-15.7c-1.5-7.2-8.4-11.9-15.7-10.5c-26.8,5.3-77.4,34.5-77.4,106.4
				c0,52.2,10.9,88.4,19.4,108.5c-29.2,5.7-46,24-46,51.5c0,30.9,28,53.3,66.7,53.3h13.3c22.1,0,35.7-16.6,37.2-18.5
				c4.5-5.8,3.5-14.2-2.3-18.7s-14.2-3.5-18.7,2.3c-0.1,0.1-6.8,8.2-16.2,8.2H200c-19.9,0-40-9.2-40-26.7c0-6.6,0-26.7,40-26.7
				c4.9,0,9.4-2.7,11.7-7s2.1-9.6-0.6-13.7c-0.3-0.4-24.5-38.4-24.5-112.7C186.7,519.1,240.4,506.9,242.6,506.4z"/>
			<path class="st0" d="M620.6,695.2c8.4-20.1,19.4-56.3,19.4-108.5c0-71.9-50.6-101.1-77.4-106.4c-7.2-1.4-14.2,3.2-15.7,10.5
				c-1.4,7.2,3.3,14.2,10.5,15.7c2.3,0.5,55.9,12,55.9,80.3c0,74.3-24.2,112.3-24.4,112.6c-2.7,4.1-3,9.4-0.7,13.7s6.8,7,11.8,7
				c40,0,40,20.1,40,26.7c0,17.5-20.1,26.7-40,26.7h-13.3c-9.2,0-16-8-16.2-8.3c-4.5-5.7-12.9-6.7-18.6-2.2
				c-5.8,4.5-6.8,12.9-2.3,18.7c1.5,1.9,15.1,18.5,37.2,18.5H600c38.6,0,66.7-22.4,66.7-53.3C666.7,719.2,649.8,700.9,620.6,695.2z"
				/>
			<path class="st0" d="M482.2,694.3l24.2-145.5c1.2-7.3-3.7-14.1-11-15.3s-14.1,3.7-15.3,10.9l-24.8,148.9h-2
				c-7.4,0-13.3,6-13.3,13.3s6,13.3,13.3,13.3h13.3c40,0,40,20.1,40,26.7c0,17.5-20.1,26.7-40,26.7h-13.3c-22.1,0-40-17.9-40-40
				V546.7c0-7.4-6-13.3-13.3-13.3c-7.4,0-13.3,6-13.3,13.3v186.7c0,22.1-17.9,40-40,40h-13.3c-19.9,0-40-9.2-40-26.7
				c0-6.6,0-26.7,40-26.7h13.3c7.4,0,13.3-6,13.3-13.3c0-7.4-6-13.3-13.3-13.3h-2l-24.8-148.9c-1.2-7.3-8.1-12.1-15.3-10.9
				c-7.3,1.2-12.2,8.1-11,15.3l24.2,145.5c-32.3,4.5-51.1,23.3-51.1,52.3c0,30.9,28,53.3,66.7,53.3h13.3c21.8,0,41.2-10.5,53.3-26.7
				c12.2,16.2,31.5,26.7,53.3,26.7h13.3c38.6,0,66.7-22.4,66.7-53.3C533.3,717.7,514.5,698.8,482.2,694.3z"/>
			<path class="st0" d="M731.9,114C702.6,55.4,632,0,586.7,0c-25.7,0-70.1,39.9-92.3,61.7c-25.7-22-57-35-94.4-35s-68.6,13-94.4,35
				C283.4,39.9,239.1,0,213.3,0C168,0,97.4,55.4,68.1,114c-8.8,17.6-14.7,41.5-14.7,59.3c0,36.8,29.9,66.7,66.7,66.7
				c33.1,0,48-21.8,59.9-39.3c1.5-2.1,2.9-4.3,4.6-6.6l53.3-80c4.1-6.1,2.4-14.4-3.7-18.5c-6.2-4.1-14.4-2.4-18.5,3.7L162.4,179
				c-1.6,2.2-3.1,4.5-4.6,6.7c-12,17.7-19.7,27.6-37.8,27.6c-22.1,0-40-17.9-40-40c0-13.9,4.9-33.3,11.9-47.4
				c26.3-52.5,89.8-99.3,121.4-99.3c11.4,0,45.2,26.5,73.5,53.9c-50.1,58.2-73.5,155.7-73.5,252.7c0,123.1,54.1,173.3,186.7,173.3
				s186.7-50.2,186.7-173.3c0-97-23.4-194.5-73.5-252.7c28.2-27.4,62.1-53.9,73.5-53.9c31.6,0,95.1,46.7,121.4,99.3
				c7,14,11.9,33.5,11.9,47.4c0,22.1-17.9,40-40,40c-18.8,0-26.2-9.9-38.7-28.8l-56.9-85.3c-4.1-6.1-12.4-7.8-18.5-3.7
				c-6.1,4.1-7.8,12.4-3.7,18.5l56.8,85.2c12.7,19.2,27,40.8,61,40.8c36.8,0,66.7-29.9,66.7-66.7C746.7,155.5,740.7,131.7,731.9,114
				z M560,333.3C560,441.6,518.1,480,400,480s-160-38.4-160-146.7c0-139.4,49.5-280,160-280S560,194,560,333.3z"/>
			<path class="st0" d="M468.1,393.9c-2.3,4.4-11.2,6.1-14.8,6.1c-15.6,0-31.7-13.3-37.6-28.6c21.9-5,37.6-19.8,37.6-38.1
				c0-22.4-23.4-40-53.3-40s-53.3,17.6-53.3,40c0,18.3,15.7,33.1,37.6,38.1c-5.8,15.3-21.9,28.6-37.5,28.6c-3.8-0.1-12.5-1.7-15-6.3
				c-3.5-6.5-11.5-9-18-5.5s-9,11.5-5.5,18c10.5,19.8,35.6,20.4,38.4,20.4c20.7,0,40.7-11.8,53.3-28.7
				c12.6,16.9,32.6,28.7,53.3,28.7c2.9,0,28.2-0.6,38.5-20.6c3.4-6.5,0.8-14.6-5.7-18C479.6,384.8,471.5,387.3,468.1,393.9z
				 M400,346.7c-16,0-26.7-8-26.7-13.3s10.6-13.3,26.7-13.3c16.3,0,26.7,7.9,26.7,13.3C426.7,338.8,416.3,346.7,400,346.7z"/>
			<path class="st0" d="M460,240c11,0,20-9,20-20s-9-20-20-20s-20,9-20,20S449,240,460,240z"/>
			<path class="st0" d="M340,240c11,0,20-9,20-20s-9-20-20-20s-20,9-20,20S329,240,340,240z"/>
		</g>
	</g>
</g>
</svg>
